<svg width="120" height="120" viewBox="0 0 120 120" fill="none" xmlns="http://www.w3.org/2000/svg">
<path opacity="0.34" d="M18.5391 111.75C28.0013 111.75 35.6719 110.249 35.6719 108.398C35.6719 106.547 28.0013 105.047 18.5391 105.047C9.07687 105.047 1.40625 106.547 1.40625 108.398C1.40625 110.249 9.07687 111.75 18.5391 111.75Z" fill="#575FA8"/>
<path d="M20.4139 102.352L20.0624 108.07H30.2811C30.2811 108.07 26.1093 105.281 24.2577 104.391L24.0468 102.375H20.4139V102.352Z" fill="#F08789"/>
<path d="M23.5781 56.9766L24.2578 103.898H20.2266C20.2266 103.898 15.7734 85.5235 17.9531 80.1563L14.0625 56.9766H23.5781Z" fill="#32388D"/>
<path opacity="0.2" d="M23.578 56.9766H14.0858L17.9764 80.1563C17.2264 82.0078 17.2499 85.4297 17.6249 89.1094L24.1639 97.1016L23.578 56.9766Z" fill="#020203"/>
<path d="M9.63287 103.102L8.06256 108.82H19.2188C19.2188 108.82 14.5079 106.031 12.6329 105.141L12.9844 103.125H9.63287V103.102Z" fill="#F08789"/>
<path d="M23.8595 56.3907L19.8986 79.9219L13.2189 103.898H9.21106C9.21106 103.898 10.5001 80.8828 14.6251 78.4922L11.3673 56.4141H23.8595V56.3907Z" fill="#32388D"/>
<path opacity="0.2" d="M23.6016 58.0078L23.8594 56.3907H11.3672L11.6484 58.3125L23.625 59.836L23.6016 58.0078Z" fill="#020203"/>
<path d="M30.3048 40.1485C30.3048 40.1485 32.7892 36.1407 36.6564 35.2266L35.1329 37.0547C35.1329 37.0547 35.8595 38.9532 34.9454 39.9141C34.0314 40.875 32.5548 40.9453 32.5548 40.9453L31.5236 42.0938L30.3048 40.1485Z" fill="#F5ABAE"/>
<path d="M20.4844 36.8672L23.8828 43.8047L30.5391 39.3047L32.2031 41.8594C32.2031 41.8594 26.4141 52.7344 23.8594 51.9375C21.3047 51.1407 19.1016 45.3985 19.1016 45.3985L20.4844 36.8672Z" fill="white"/>
<path opacity="0.2" d="M23.8594 43.8047L20.4609 36.8672L19.1016 45.3985C19.1016 45.3985 21.3047 51.1407 23.8594 51.9375C23.9297 51.961 23.9766 51.961 24.0469 51.961L27.1172 41.5782L23.8594 43.8047Z" fill="#020203"/>
<path d="M23.0625 20.4844C23.0625 20.4844 23.461 24.0235 23.8594 24.8906H22.7579C22.7579 24.8906 22.8516 28.2891 22.1485 28.711C21.6563 29.0156 20.2266 28.711 19.8985 29.1094C19.5704 29.5078 19.0782 32.3438 19.0782 32.3438L14.6485 31.9688L15.0938 28.0078C15.0938 28.0078 12.6094 25.0313 13.3594 21.375C14.1094 17.7188 22.4063 17.086 23.0625 20.4844Z" fill="#F5ABAE"/>
<path opacity="0.2" d="M17.5313 26.3907L14.0391 26.2032C14.5547 27.3047 15.1172 27.9844 15.1172 27.9844L14.6719 31.9453L19.1016 32.3203C19.1016 32.3203 19.5938 29.4844 19.9219 29.086C20.0391 28.9453 20.3204 28.875 20.6485 28.875C18.9376 28.4063 17.3907 26.4844 17.5313 26.3907Z" fill="#020203"/>
<path d="M23.2033 21.6563C23.2033 21.6563 22.2658 22.2188 20.3908 20.9766C20.3908 20.9766 19.1251 23.25 18.0236 22.9453C18.0236 22.9453 17.9767 24.5625 17.7423 24.6797C17.5079 24.7969 17.0392 23.2969 16.5704 23.2031C16.1017 23.1094 15.6095 23.5781 16.1251 24.9844C16.6173 26.3906 17.5314 26.3906 17.5314 26.3906L15.0939 28.0078C15.0939 28.0078 13.172 27.3985 12.797 25.8047C12.797 25.8047 10.3595 23.4375 11.8361 21.75C11.8361 21.75 10.2189 20.3906 13.9923 18.7266C13.9923 18.7266 14.883 15.4453 16.6408 16.9453C16.6408 16.9453 19.8986 14.5078 20.6955 16.6875C20.6955 16.6875 24.8908 16.336 25.1486 18.6094C25.4064 20.8828 24.3986 21.4219 24.3986 21.4219C24.3986 21.4219 24.633 23.2969 23.4611 23.3906L23.2033 21.6563Z" fill="#212226"/>
<path d="M11.5781 36.5625C11.5781 36.5625 9.37493 36.0235 9.74993 33.6797C10.1249 31.3125 13.2187 30.2578 19.5702 31.7344C20.3202 31.8985 20.9062 33.1407 20.414 34.2188C20.414 34.2188 22.4531 39.2344 23.0859 43.336C23.7187 47.4375 24.0468 51.7266 24.7499 53.7188C25.4296 55.711 24.8671 57.9375 22.9687 57.9375C21.0937 57.9375 13.6874 57.9375 11.3906 57.9375C9.09368 57.9375 8.81243 54.75 9.72649 51.4219C10.6171 48.1172 11.9531 38.9532 11.5781 36.5625Z" fill="#444496"/>
<path d="M16.7346 35.2735C20.344 36.0469 17.8362 43.2188 17.1096 45.2578C16.3831 47.3203 15.5862 49.1485 16.7346 50.7422C17.8831 52.336 19.8987 54.1172 19.8987 54.1172L18.5393 56.9766C18.5393 56.9766 11.0159 56.0156 9.21119 53.7891C7.42995 51.5625 8.43776 46.5938 9.98463 43.1719C11.5315 39.75 14.0393 34.711 16.7346 35.2735Z" fill="white"/>
<path d="M18.3283 57.4688C18.2345 57.4219 18.2111 57.3282 18.2345 57.2344L20.0627 53.25C20.1095 53.1563 20.2033 53.1328 20.297 53.1563C20.3908 53.2032 20.4142 53.2969 20.3908 53.3907L18.5627 57.375C18.5158 57.4688 18.422 57.4922 18.3283 57.4688Z" fill="#A77071"/>
<path d="M16.6171 71.0391C16.6171 71.625 16.1483 72.1172 15.5389 72.1172C14.953 72.1172 14.4608 71.625 14.4608 71.0391C14.4608 70.4531 14.9296 69.9609 15.5389 69.9609C16.1483 69.9844 16.6171 70.4531 16.6171 71.0391Z" fill="#59BCAB"/>
<path d="M9.91394 70.7578C8.41394 70.7578 7.19519 69.5391 7.19519 68.0391C7.19519 66.5391 8.41394 65.3203 9.91394 65.3203C11.4139 65.3203 12.6327 66.5391 12.6327 68.0391C12.6327 69.5391 11.4139 70.7578 9.91394 70.7578ZM9.91394 66.75C9.18738 66.75 8.62488 67.3359 8.62488 68.0391C8.62488 68.7422 9.21081 69.3281 9.91394 69.3281C10.6405 69.3281 11.203 68.7422 11.203 68.0391C11.203 67.3359 10.6405 66.75 9.91394 66.75Z" fill="#FCC450"/>
<path d="M88.0781 17.5781H87.1875V18.4922C87.1875 18.9141 86.8594 19.2422 86.4375 19.2422C86.0156 19.2422 85.6875 18.9141 85.6875 18.4922V17.5781H84.7734C84.3516 17.5781 84.0234 17.25 84.0234 16.8281C84.0234 16.4063 84.3516 16.0781 84.7734 16.0781H85.6875V15.1641C85.6875 14.7422 86.0156 14.4141 86.4375 14.4141C86.8594 14.4141 87.1875 14.7422 87.1875 15.1641V16.0781H88.1016C88.5234 16.0781 88.8516 16.4063 88.8516 16.8281C88.8281 17.25 88.5 17.5781 88.0781 17.5781Z" fill="#59BCAB"/>
<path d="M95.4375 12.8437C95.4375 13.4297 94.9687 13.9219 94.3594 13.9219C93.7734 13.9219 93.2812 13.4531 93.2812 12.8437C93.2812 12.2578 93.7734 11.7656 94.3594 11.7656C94.9453 11.7656 95.4375 12.2344 95.4375 12.8437Z" fill="#345185"/>
<path d="M39.961 36.961C36.7266 28.8516 38.3907 19.2657 44.9532 12.7032C48.1172 9.53909 51.9844 7.50003 56.0625 6.63284L58.4766 17.5782C53.3907 18.6797 49.5938 23.2032 49.5938 28.6172C49.5938 30.0938 49.875 31.5 50.3907 32.8125L39.961 36.961Z" fill="#345185"/>
<path d="M44.9531 44.5313C44.789 44.3672 44.6015 44.1797 44.4374 43.9922L52.6171 36.3282C54.6796 38.5313 57.6093 39.8906 60.8671 39.8906C67.1015 39.8906 72.164 34.8282 72.164 28.5938C72.164 24.1407 69.6093 20.2969 65.8593 18.4688L70.8281 8.41409C72.9843 9.46878 74.9999 10.8985 76.7812 12.6797C85.5703 21.4688 85.5703 35.7422 76.7812 44.5313C68.0156 53.3203 53.7421 53.3203 44.9531 44.5313Z" fill="white"/>
<path d="M60.8908 17.3203C60.0471 17.3203 59.2502 17.4141 58.4767 17.5781L56.0861 6.63283C61.008 5.5547 66.2345 6.14064 70.8517 8.43752L65.883 18.4922C64.383 17.7188 62.672 17.3203 60.8908 17.3203Z" fill="#59BCAB"/>
<path d="M44.4375 43.9922C42.4688 41.8828 40.9687 39.4922 39.9609 36.9609L50.3906 32.8125C50.9062 34.125 51.6797 35.3203 52.6406 36.3516L44.4375 43.9922Z" fill="#C1E4EE"/>
<path d="M112.195 23.6016V99.0235C112.195 100.289 111.164 101.32 109.898 101.32H61.6639C60.3983 101.32 59.3671 100.289 59.3671 99.0235V23.6016C59.3671 22.336 60.3983 21.2813 61.6639 21.2813H109.875C111.164 21.2813 112.195 22.3125 112.195 23.6016Z" fill="#4FBECB"/>
<path d="M54.0466 103.477H117.515C118.101 103.477 118.593 103.008 118.593 102.398C118.593 101.813 118.125 101.32 117.515 101.32H54.0466C53.4606 101.32 52.9684 101.789 52.9684 102.398C52.9684 103.008 53.4606 103.477 54.0466 103.477Z" fill="#E2E2E1"/>
<path d="M112.195 23.5782V29.2032H59.3671V23.5782C59.3671 22.3125 60.3983 21.2578 61.6639 21.2578H109.875C111.164 21.2813 112.195 22.3125 112.195 23.5782Z" fill="#4FBECB"/>
<path d="M85.7811 99.3281C84.5858 99.3281 83.6248 98.3672 83.6248 97.1719C83.6248 95.9766 84.5858 95.0156 85.7811 95.0156C86.9764 95.0156 87.9373 95.9766 87.9373 97.1719C87.9608 98.3672 86.9764 99.3281 85.7811 99.3281Z" fill="#E6F2EA"/>
<path d="M65.4606 26.0625C64.9684 26.0625 64.57 25.6641 64.57 25.1719C64.57 24.6797 64.9684 24.2813 65.4606 24.2813C65.9528 24.2813 66.3513 24.6797 66.3513 25.1719C66.3278 25.6641 65.9294 26.0625 65.4606 26.0625Z" fill="#E6F2EA"/>
<path d="M68.2498 26.0625C67.7576 26.0625 67.3591 25.6641 67.3591 25.1719C67.3591 24.6797 67.7576 24.2813 68.2498 24.2813C68.7419 24.2813 69.1404 24.6797 69.1404 25.1719C69.1404 25.6641 68.7419 26.0625 68.2498 26.0625Z" fill="#E6F2EA"/>
<path d="M111.375 29.2032H60.1873V92.6953H111.375V29.2032Z" fill="#D2EBF7"/>
<path d="M69.3495 50.4844V42.961H52.4042V50.4844H69.3495Z" fill="#A9DAE5"/>
<path d="M79.6902 69.6292V62.1057H62.7449V69.6292H79.6902Z" fill="#A9DAE5"/>
<path d="M74.5317 60.0687V52.5452H57.5864V60.0687H74.5317Z" fill="#A9DAE5"/>
<path d="M108.445 31.875H62.7421V40.4297H108.445V31.875Z" fill="#EDF6F4"/>
<path d="M107.062 33.0938H100.992V39.1641H107.062V33.0938Z" fill="#D2E8F2"/>
<path d="M78.8435 33.4688H65.6951V34.6407H78.8435V33.4688Z" fill="#ACD8C8"/>
<path d="M78.8435 35.5547H65.6951V36.7266H78.8435V35.5547Z" fill="#ACD8C8"/>
<path d="M74.5544 37.6407H65.6951V38.8125H74.5544V37.6407Z" fill="#ACD8C8"/>
<path opacity="0.5" d="M117.07 68.4141H79.6872V85.9688H117.07V68.4141Z" fill="#96CEB8"/>
<path d="M98.0857 74.4844H83.4138V75.961H98.0857V74.4844Z" fill="#E6F2EA"/>
<path d="M94.5935 77.1094H83.4138V78.586H94.5935V77.1094Z" fill="#E6F2EA"/>
<path d="M90.9607 79.7578H83.4138V81.2344H90.9607V79.7578Z" fill="#E6F2EA"/>
<path d="M96.3981 79.7578H91.8981V81.2344H96.3981V79.7578Z" fill="#E6F2EA"/>
<path d="M93.6091 82.3828H83.4138V83.8594H93.6091V82.3828Z" fill="#E6F2EA"/>
<path d="M76.2421 72.4453H62.7421V85.9453H76.2421V72.4453Z" fill="#9FD2BA"/>
<path d="M72.4776 82.2233C74.1251 80.5758 74.1251 77.9047 72.4776 76.2572C70.83 74.6097 68.1589 74.6097 66.5114 76.2572C64.8639 77.9047 64.8639 80.5758 66.5114 82.2233C68.1589 83.8709 70.83 83.8709 72.4776 82.2233Z" fill="#7CC39E"/>
<path d="M72.7032 79.2422C72.7032 80.2969 72.1876 81.2344 71.3907 81.8203C71.1563 81.9844 70.8985 82.1485 70.6172 82.2422C70.5001 82.2891 70.3594 82.336 70.2422 82.3594C70.1719 82.3828 70.0782 82.3828 70.0079 82.4063C69.8438 82.4297 69.6797 82.4532 69.5157 82.4532C69.1876 82.4532 68.8594 82.4063 68.5547 82.3125C67.2422 81.9141 66.3047 80.6953 66.3047 79.2422C66.3047 78.75 66.4219 78.2578 66.6329 77.836C66.8907 77.3203 67.2657 76.875 67.7344 76.5703C67.8516 76.5 67.9688 76.4297 68.086 76.3594C68.3438 76.2188 68.6251 76.125 68.9297 76.0782C69.1172 76.0313 69.3282 76.0313 69.5157 76.0313C70.8751 76.0313 72.0469 76.875 72.4922 78.0703C72.6094 78.4453 72.7032 78.8203 72.7032 79.2422Z" fill="#EFF4F4"/>
<path d="M69.4922 79.6172C69.2813 79.6172 69.1172 79.4532 69.1172 79.2422V77.1797C69.1172 76.9688 69.2813 76.8047 69.4922 76.8047C69.7032 76.8047 69.8672 76.9688 69.8672 77.1797V79.2422C69.8672 79.4532 69.7032 79.6172 69.4922 79.6172Z" fill="#C1D6CF"/>
<path d="M69.4922 79.6172C69.375 79.6172 69.2578 79.5469 69.1875 79.4532C69.0703 79.2891 69.1407 79.0547 69.3047 78.9375L70.3594 78.2578C70.5235 78.1407 70.7578 78.211 70.875 78.375C70.9922 78.5391 70.9219 78.7735 70.7578 78.8907L69.7031 79.5703C69.6328 79.5938 69.5625 79.6172 69.4922 79.6172Z" fill="#C1D6CF"/>
<path d="M108.445 42.961H81.7732V69.6329H108.445V42.961Z" fill="#98D5E9"/>
<path d="M95.1092 57.4922C93.2342 57.4922 91.7108 55.9688 91.7108 54.0938V52.0547C91.7108 50.1797 93.2342 48.6563 95.1092 48.6563C96.9842 48.6563 98.5076 50.1797 98.5076 52.0547V54.0938C98.5076 55.9688 96.9842 57.4922 95.1092 57.4922Z" fill="#F8FCFA"/>
<path d="M95.1092 55.7578C91.8983 55.7578 89.1561 57.6328 87.867 60.3516C87.117 61.9453 88.2655 63.7735 90.0233 63.7735H100.219C101.976 63.7735 103.125 61.9453 102.375 60.3516C101.086 57.6328 98.3202 55.7578 95.1092 55.7578Z" fill="#F8FCFA"/>
<path d="M108.44 89.0284V86.8487L62.7368 86.8487V89.0284L108.44 89.0284Z" fill="#FFE1AB"/>
<path d="M111.867 42.0938V34.1485C112.43 34.1485 112.898 34.6172 112.898 35.1797V41.086C112.898 41.6485 112.43 42.0938 111.867 42.0938Z" fill="#4FBECB"/>
<path d="M111.867 50.9766V43.0313C112.43 43.0313 112.898 43.5 112.898 44.0625V49.9688C112.898 50.5078 112.43 50.9766 111.867 50.9766Z" fill="#4FBECB"/>
<path opacity="0.3" d="M89.8826 29.2032L60.1873 58.8985V42.9375L73.9217 29.2032H89.8826Z" fill="#F6FBFD"/>
<path opacity="0.3" d="M100.992 29.2032L60.1873 70.0078V62.0391L93.0233 29.2032H100.992Z" fill="#F6FBFD"/>
<path opacity="0.3" d="M70.781 74.9063V81.75C70.781 82.0313 70.5935 82.2891 70.3357 82.3594V101.297H61.6873C60.4216 101.297 59.3904 100.266 59.3904 99V60.961H68.7419C69.6326 60.961 70.3357 61.6875 70.3357 62.5547V74.2969C70.5935 74.3907 70.781 74.625 70.781 74.9063Z" fill="#385F82"/>
<path d="M64.1953 57.7969V110.156C64.1953 111.047 63.4688 111.75 62.6016 111.75H35.1094C34.2422 111.75 33.5156 111.047 33.5156 110.156V57.7969C33.5156 56.9063 34.2422 56.2031 35.1094 56.2031H62.5781C63.4687 56.2031 64.1953 56.9063 64.1953 57.7969Z" fill="#5BB98E"/>
<path d="M64.1953 57.7969V61.7109H33.5156V57.7969C33.5156 56.9062 34.2422 56.2031 35.1094 56.2031H62.6016C63.4688 56.2031 64.1953 56.9297 64.1953 57.7969Z" fill="#5BB98E"/>
<path d="M48.8437 110.391C48.0234 110.391 47.3438 109.711 47.3438 108.891C47.3438 108.07 48.0234 107.391 48.8437 107.391C49.6641 107.391 50.3438 108.07 50.3438 108.891C50.3438 109.711 49.6875 110.391 48.8437 110.391Z" fill="#E6F2EA"/>
<path d="M43.289 59.5078C42.9609 59.5078 42.6796 59.2266 42.6796 58.8984C42.6796 58.5703 42.9609 58.2891 43.289 58.2891C43.6171 58.2891 43.8984 58.5703 43.8984 58.8984C43.8984 59.25 43.6406 59.5078 43.289 59.5078Z" fill="#E6F2EA"/>
<path d="M51.9374 59.1328H45.8671C45.7499 59.1328 45.6327 59.0391 45.6327 58.8984C45.6327 58.7578 45.7264 58.6641 45.8671 58.6641H51.9374C52.0546 58.6641 52.1718 58.7578 52.1718 58.8984C52.1718 59.0391 52.0546 59.1328 51.9374 59.1328Z" fill="#E6F2EA"/>
<path d="M63.6094 61.7109H34.0782V105.797H63.6094V61.7109Z" fill="#D2EBF7"/>
<path d="M41.8125 85.1484H36.4453V86.8359H41.8125V85.1484Z" fill="#EDF6F4"/>
<path d="M55.4767 85.1484H50.1095V86.8359H55.4767V85.1484Z" fill="#EDF6F4"/>
<path d="M48.6328 85.1484H43.2656V86.8359H48.6328V85.1484Z" fill="#EDF6F4"/>
<path d="M61.2892 88.2187H39.6798V94.1484H61.2892V88.2187Z" fill="#EDF6F4"/>
<path d="M60.3282 89.0625H56.1094V93.2812H60.3282V89.0625Z" fill="#D5EAE4"/>
<path d="M47.6953 89.3203H38.5547V90.1406H47.6953V89.3203Z" fill="#ACD8C8"/>
<path d="M47.6953 90.7734H38.5547V91.5937H47.6953V90.7734Z" fill="#ACD8C8"/>
<path d="M44.6953 92.2266H38.5547V93.0469H44.6953V92.2266Z" fill="#ACD8C8"/>
<path d="M52.2889 95.625H36.4921V103.031H52.2889V95.625Z" fill="#EDF6F4"/>
<path d="M46.6172 96.75H38.5547V97.5703H46.6172V96.75Z" fill="#FFE1AB"/>
<path d="M44.6953 98.1797H38.5547V99H44.6953V98.1797Z" fill="#FFE1AB"/>
<path d="M42.7031 99.6328H38.5547V100.453H42.7031V99.6328Z" fill="#FFE1AB"/>
<path d="M45.6794 99.6328H43.2185V100.453H45.6794V99.6328Z" fill="#ACD8C8"/>
<path d="M44.1562 101.086H38.5547V101.906H44.1562V101.086Z" fill="#FFE1AB"/>
<path opacity="0.5" d="M55.4999 64.4531H32.2499V83.4141H55.4999V64.4531Z" fill="#FFE1AB"/>
<path d="M46.0079 79.9453C49.2957 79.9453 51.961 77.28 51.961 73.9922C51.961 70.7044 49.2957 68.0391 46.0079 68.0391C42.7201 68.0391 40.0547 70.7044 40.0547 73.9922C40.0547 77.28 42.7201 79.9453 46.0079 79.9453Z" fill="#FCC450"/>
<path d="M50.5078 73.9922C50.5078 75.4922 49.7812 76.8047 48.6796 77.625C48.3515 77.8594 47.9765 78.0703 47.5781 78.2109C47.414 78.2813 47.2265 78.3281 47.039 78.375C46.9218 78.3984 46.8046 78.4219 46.7109 78.4453C46.4765 78.4922 46.2421 78.4922 46.0078 78.4922C45.539 78.4922 45.0937 78.4219 44.6718 78.2813C42.8437 77.7188 41.5078 75.9844 41.5078 73.9688C41.5078 73.2656 41.6718 72.6094 41.9531 72C42.3046 71.2734 42.8437 70.6406 43.5234 70.1953C43.6874 70.0781 43.8515 69.9844 44.0156 69.9141C44.3906 69.7266 44.789 69.5859 45.1874 69.5156C45.4687 69.4688 45.7265 69.4453 46.0078 69.4453C47.9296 69.4453 49.5703 70.6406 50.2031 72.3281C50.414 72.8672 50.5078 73.4297 50.5078 73.9922Z" fill="#EFF4F4"/>
<path d="M46.0078 74.5313C45.7265 74.5313 45.4921 74.2969 45.4921 74.0156V71.1328C45.4921 70.8516 45.7265 70.6172 46.0078 70.6172C46.289 70.6172 46.5234 70.8516 46.5234 71.1328V74.0156C46.5234 74.2969 46.289 74.5313 46.0078 74.5313Z" fill="#C1D6CF"/>
<path d="M46.0077 74.5313C45.8437 74.5313 45.6562 74.4375 45.5624 74.2969C45.3984 74.0625 45.4921 73.7344 45.7265 73.5703L47.2265 72.6328C47.4608 72.4688 47.789 72.5625 47.953 72.7969C48.1171 73.0313 48.0233 73.3594 47.789 73.5235L46.289 74.461C46.1952 74.5078 46.1015 74.5313 46.0077 74.5313Z" fill="#C1D6CF"/>
<path opacity="0.3" d="M54.7032 61.7109L34.0782 82.3125V71.25L43.6173 61.7109H54.7032Z" fill="#F6FBFD"/>
<path opacity="0.3" d="M62.4141 61.7109L34.0782 90.0469V84.4922L56.8594 61.7109H62.4141Z" fill="#F6FBFD"/>
<g opacity="0.7">
<path opacity="0.7" d="M65.3204 95.625H53.8829V107.062H65.3204V95.625Z" fill="#9FD2BA"/>
<path opacity="0.7" d="M59.5781 101.859C58.7812 101.859 58.125 101.203 58.125 100.406V99.5391C58.125 98.7422 58.7812 98.0859 59.5781 98.0859C60.375 98.0859 61.0313 98.7422 61.0313 99.5391V100.406C61.0547 101.203 60.3984 101.859 59.5781 101.859Z" fill="#F8FCFA"/>
<path opacity="0.7" d="M59.5781 101.109C58.1953 101.109 57.0234 101.906 56.4609 103.078C56.1328 103.758 56.625 104.555 57.375 104.555H61.7343C62.4843 104.555 62.9765 103.758 62.6484 103.078C62.1562 101.906 60.9609 101.109 59.5781 101.109Z" fill="#F8FCFA"/>
</g>
<path d="M60.9843 64.4531H57.5858V86.8359H60.9843V64.4531Z" fill="#9FD2BA"/>
<path d="M63.961 77.6719V69.4922C64.336 69.4922 64.6407 69.7969 64.6407 70.1719V77.0156C64.6407 77.3672 64.336 77.6719 63.961 77.6719Z" fill="#5BB98E"/>
<path opacity="0.3" d="M43.4296 56.2031L40.6171 64.4531L34.1483 83.4141L33.5155 85.2891V83.4141H32.2733V64.4531H33.5155V57.7969C33.5155 56.9063 34.2421 56.2031 35.1093 56.2031H43.4296Z" fill="#385F82"/>
<path d="M18.2109 113.906H68.5078C69.0937 113.906 69.5859 113.437 69.5859 112.828C69.5859 112.242 69.1171 111.75 68.5078 111.75H18.2109C17.6249 111.75 17.1328 112.219 17.1328 112.828C17.1562 113.437 17.6249 113.906 18.2109 113.906Z" fill="#E2E2E1"/>
</svg>
