<svg width="112" height="116" viewBox="0 0 112 116" fill="none" xmlns="http://www.w3.org/2000/svg">
<path d="M2.64655 88.4819L44.4465 112.773C45.3325 113.29 46.7597 113.29 47.6456 112.782L111.159 76.1072C112.045 75.5987 112.045 74.7702 111.159 74.2534L69.3593 49.962C68.4816 49.4534 67.0543 49.4534 66.1684 49.962L2.65476 86.6281C1.76885 87.1449 1.76064 87.9733 2.64655 88.4819Z" fill="#AABAFD"/>
<path d="M52.0414 90.9506C51.5419 91.2389 51.5448 91.7088 52.0411 91.9971L62.345 97.9851C62.8412 98.2735 63.6523 98.2767 64.1518 97.9883L84.4566 86.2653C84.9561 85.977 84.9532 85.5071 84.4569 85.2188L74.1531 79.2308C73.6568 78.9424 72.8457 78.9392 72.3462 79.2276L52.0414 90.9506Z" fill="#2E4277"/>
<path d="M1.99036 87.5632L1.99856 90.0083C1.99856 90.3364 2.22001 90.6727 2.65477 90.927L44.4548 115.218C45.3407 115.727 46.7679 115.727 47.6538 115.218L111.168 78.5523C111.61 78.298 111.832 77.9618 111.832 77.6172L111.824 75.1803C111.824 75.5166 111.602 75.8529 111.159 76.1072L47.6456 112.782C46.7597 113.29 45.3325 113.29 44.4465 112.773L2.64656 88.4819C2.20364 88.2276 1.99036 87.8995 1.99036 87.5632Z" fill="#798FFE"/>
<path d="M66.0449 1.59436C66.9299 1.08338 67.6497 1.49356 67.6526 2.51059L67.7659 47.1953C67.7687 48.2063 67.0536 49.451 66.1685 49.962L3.57015 86.0998C2.68507 86.6108 1.96524 86.1946 1.96236 85.1835L1.84913 40.4989C1.84625 39.4818 2.5614 38.2431 3.44647 37.7322L66.0449 1.59436Z" fill="#1B2A4F"/>
<path d="M0.168091 39.5249L0.282931 84.2079C0.282931 84.7082 0.463411 85.0692 0.750499 85.2332L2.4294 86.2096C2.14226 86.0456 1.96183 85.6847 1.96183 85.1842L1.84699 40.5013C1.84699 39.4841 2.56063 38.2455 3.44654 37.7287L66.0452 1.59504C66.4882 1.34076 66.8901 1.31618 67.1854 1.4802L65.5065 0.503854C65.2194 0.33979 64.8093 0.364366 64.3664 0.618646L1.76764 36.7606C0.881731 37.2691 0.168091 38.5078 0.168091 39.5249Z" fill="#384E85"/>
<path d="M4.10852 39.9539L4.21746 83.1221L65.5066 47.7403L65.3976 4.57205L4.10852 39.9539Z" fill="#384E85"/>
<path d="M4.10852 39.9539L4.12681 47.1945L65.4159 11.8126L65.3976 4.57205L4.10852 39.9539Z" fill="#AABAFD"/>
<path d="M55.2921 13.138C55.883 12.7969 56.3633 13.0589 56.3653 13.7379C56.3672 14.4168 55.8899 15.2435 55.2991 15.5846C54.7184 15.9199 54.238 15.6461 54.2361 14.9672C54.2341 14.2882 54.7114 13.4733 55.2921 13.138Z" fill="white"/>
<path d="M58.7049 11.1677C59.2856 10.8325 59.7659 11.0945 59.7679 11.7734C59.7698 12.4523 59.2925 13.279 58.7118 13.6143C58.121 13.9554 57.6406 13.6816 57.6387 13.0027C57.6368 12.3238 58.114 11.5088 58.7049 11.1677Z" fill="white"/>
<path d="M62.1075 9.2032C62.6984 8.86207 63.1787 9.1241 63.1806 9.80304C63.1825 10.4819 62.7053 11.3086 62.1144 11.6498C61.5235 11.9909 61.0432 11.7171 61.0413 11.0382C61.0393 10.3593 61.5166 9.54434 62.1075 9.2032Z" fill="white"/>
<path d="M15.465 85.4833L11.4529 87.8148L9.72461 86.817L13.7367 84.4854L15.465 85.4833Z" fill="#384E85"/>
<path d="M58.6344 60.3959L54.6169 62.7307L52.8885 61.7328L56.9061 59.3981L58.6344 60.3959Z" fill="#384E85"/>
<path d="M69.4269 54.124L65.4093 56.4588L63.681 55.461L67.6986 53.1262L69.4269 54.124Z" fill="#384E85"/>
<path d="M62.2262 68.7242L58.2141 71.0558L54.6467 68.9961L58.6588 66.6646L62.2262 68.7242Z" fill="#384E85"/>
<path d="M82.0148 67.6463L77.9973 69.981L74.4243 67.9181L78.4419 65.5834L82.0148 67.6463Z" fill="#384E85"/>
<path d="M87.4138 64.5088L83.3963 66.8435L75.3252 62.1837L79.3428 59.8489L87.4138 64.5088Z" fill="#384E85"/>
<path d="M73.9249 56.721L66.5172 61.0259L62.9442 58.9631L70.3519 54.6581L73.9249 56.721Z" fill="#384E85"/>
<path d="M65.1413 61.8254L61.1238 64.1602L57.5508 62.0973L61.5683 59.7625L65.1413 61.8254Z" fill="#384E85"/>
<path d="M78.4174 59.3148L69.0009 64.7871L65.4335 62.7274L74.85 57.2552L78.4174 59.3148Z" fill="#384E85"/>
<path d="M67.625 65.5866L63.6075 67.9213L60.04 65.8617L64.0576 63.5269L67.625 65.5866Z" fill="#384E85"/>
<path d="M72.1231 68.1836L68.1056 70.5183L64.5326 68.4554L68.5501 66.1207L72.1231 68.1836Z" fill="#384E85"/>
<path d="M59.7425 64.9631L55.725 67.2978L52.152 65.235L56.1695 62.9002L59.7425 64.9631Z" fill="#384E85"/>
<path d="M53.2356 63.5334L49.2236 65.865L47.4952 64.8671L51.5073 62.5356L53.2356 63.5334Z" fill="#384E85"/>
<path d="M47.8423 66.6678L43.8247 69.0025L42.0964 68.0047L46.114 65.6699L47.8423 66.6678Z" fill="#384E85"/>
<path d="M50.5385 80.7273L46.521 83.062L42.948 80.9992L46.9656 78.6644L50.5385 80.7273Z" fill="#384E85"/>
<path d="M42.4431 69.8052L38.4311 72.1368L36.7028 71.1389L40.7148 68.8074L42.4431 69.8052Z" fill="#384E85"/>
<path d="M48.9502 71.2348L44.9381 73.5664L41.3651 71.5035L45.3772 69.172L48.9502 71.2348Z" fill="#384E85"/>
<path d="M37.0497 72.9395L33.0321 75.2743L31.3038 74.2764L35.3214 71.9417L37.0497 72.9395Z" fill="#384E85"/>
<path d="M43.5566 74.3692L39.539 76.7039L35.9661 74.6411L39.9836 72.3063L43.5566 74.3692Z" fill="#384E85"/>
<path d="M51.4337 74.996L47.4217 77.3276L43.8542 75.2679L47.8663 72.9363L51.4337 74.996Z" fill="#384E85"/>
<path d="M31.6563 76.0738L27.6387 78.4086L25.9104 77.4107L29.9279 75.076L31.6563 76.0738Z" fill="#384E85"/>
<path d="M38.1633 77.5035L34.1457 79.8382L30.5728 77.7754L34.5903 75.4406L38.1633 77.5035Z" fill="#384E85"/>
<path d="M55.9318 77.593L51.9198 79.9245L48.3468 77.8616L52.3589 75.5301L55.9318 77.593Z" fill="#384E85"/>
<path d="M46.0403 78.1303L42.0228 80.465L38.4553 78.4054L42.4729 76.0706L46.0403 78.1303Z" fill="#384E85"/>
<path d="M26.2575 79.2114L22.2399 81.5462L20.5116 80.5483L24.5292 78.2136L26.2575 79.2114Z" fill="#384E85"/>
<path d="M32.7643 80.6411L28.7467 82.9758L25.1737 80.913L29.1913 78.5782L32.7643 80.6411Z" fill="#384E85"/>
<path d="M40.6468 81.2646L36.6293 83.5994L33.0619 81.5397L37.0794 79.205L40.6468 81.2646Z" fill="#384E85"/>
<path d="M27.3708 83.7754L23.3532 86.1101L19.7803 84.0472L23.7978 81.7125L27.3708 83.7754Z" fill="#384E85"/>
<path d="M45.145 83.8616L41.1274 86.1964L37.5544 84.1335L41.572 81.7988L45.145 83.8616Z" fill="#384E85"/>
<path d="M35.2481 84.4022L31.2305 86.7369L27.6631 84.6773L31.6806 82.3425L35.2481 84.4022Z" fill="#384E85"/>
<path d="M39.7462 86.9992L35.7286 89.3339L32.1556 87.2711L36.1732 84.9363L39.7462 86.9992Z" fill="#384E85"/>
<path d="M60.6611 80.0556L40.2265 91.9308L36.6536 89.868L57.0881 77.9927L60.6611 80.0556Z" fill="#384E85"/>
<path d="M34.3526 90.1334L30.3351 92.4681L26.7621 90.4053L30.7796 88.0705L34.3526 90.1334Z" fill="#384E85"/>
<path d="M29.8545 87.5365L20.4435 93.0056L16.8761 90.9459L26.2871 85.4768L29.8545 87.5365Z" fill="#384E85"/>
<path d="M28.9536 93.2709L24.9415 95.6025L21.3685 93.5396L25.3806 91.2081L28.9536 93.2709Z" fill="#384E85"/>
<path d="M38.8507 92.7304L29.4397 98.1995L25.8667 96.1366L35.2777 90.6675L38.8507 92.7304Z" fill="#384E85"/>
<path d="M20.8639 82.3457L16.8464 84.6805L15.118 83.6826L19.1356 81.3479L20.8639 82.3457Z" fill="#384E85"/>
<path d="M64.028 57.2616L60.0104 59.5963L58.2821 58.5985L62.2996 56.2637L64.028 57.2616Z" fill="#384E85"/>
<path d="M54.349 68.0974L50.3314 70.4321L46.7584 68.3693L50.776 66.0345L54.349 68.0974Z" fill="#384E85"/>
<path d="M65.829 77.0524L61.8114 79.3872L58.2384 77.3243L62.256 74.9896L65.829 77.0524Z" fill="#384E85"/>
<path d="M61.3309 74.4554L57.3134 76.7902L53.7404 74.7273L57.7579 72.3926L61.3309 74.4554Z" fill="#384E85"/>
<path d="M56.8328 71.8584L52.8152 74.1932L49.2478 72.1335L53.2654 69.7988L56.8328 71.8584Z" fill="#384E85"/>
<path d="M76.6213 70.7806L72.6037 73.1153L69.0308 71.0524L73.0483 68.7177L76.6213 70.7806Z" fill="#384E85"/>
<path d="M71.2224 73.9181L67.2103 76.2496L63.6373 74.1868L67.6494 71.8552L71.2224 73.9181Z" fill="#384E85"/>
<path d="M21.9719 86.9129L15.951 90.4119L12.3781 88.349L18.3989 84.85L21.9719 86.9129Z" fill="#384E85"/>
<path d="M9.80583 51.3641C10.5837 50.9149 11.043 51.0132 11.3717 51.311L10.9302 52.0269C10.6478 51.7423 10.2852 51.7654 9.8424 52.0211C8.94127 52.5414 8.36976 53.6736 8.37286 54.7621C8.37593 55.8463 8.95203 56.3248 9.85313 55.8045C10.296 55.5488 10.6574 55.1407 10.9373 54.5403L11.3814 54.7492C11.0555 55.4294 10.5983 56.0568 9.82039 56.5059C8.54959 57.2396 7.6915 56.6093 7.68739 55.1579C7.68329 53.7065 8.53502 52.0978 9.80583 51.3641Z" fill="#D9DDF6"/>
<path d="M12.6707 53.7212C12.9325 53.57 13.1566 53.6977 13.1575 53.9986C13.1583 54.3039 12.9357 54.6851 12.6738 54.8363C12.4081 54.9897 12.1879 54.8642 12.187 54.5589C12.1862 54.258 12.405 53.8746 12.6707 53.7212Z" fill="#D9DDF6"/>
<path d="M13.0033 50.5218C13.1931 50.1952 13.1936 49.8413 13.0045 49.7314C12.8153 49.6214 12.5081 49.7971 12.3183 50.1237C12.1285 50.4503 12.128 50.8041 12.3171 50.9141C12.5063 51.024 12.8135 50.8484 13.0033 50.5218Z" fill="#D9DDF6"/>
<path d="M14.1442 46.9091L16.2555 52.8704L15.7356 53.1705L13.6243 47.2093L14.1442 46.9091Z" fill="#D9DDF6"/>
<path d="M18.2589 43.8465L21.9447 45.9514L18.2829 52.2983L17.6917 51.9614L20.774 46.6272L17.6716 44.8637L18.2589 43.8465Z" fill="#D9DDF6"/>
<path d="M26.0603 45.9597L26.0648 47.5438L22.2101 49.7694L22.2056 48.1852L26.0603 45.9597Z" fill="#D9DDF6"/>
</svg>
