<svg width="120" height="120" viewBox="0 0 120 120" fill="none" xmlns="http://www.w3.org/2000/svg">
<path d="M44.9298 23.7422C42.586 24.7266 33.5157 28.5 28.4532 38.2734C27.3751 40.3594 22.3126 50.1328 26.0392 58.7578C30.9845 70.1953 46.0313 67.4062 52.9454 78.1641C58.8751 87.4219 46.5704 96.5156 51.8673 107.531C54.6329 113.273 61.0079 118.078 66.8907 118.523C85.2892 119.906 118.336 80.2734 104.906 49.1719C95.1095 26.5781 63.8907 15.8437 44.9298 23.7422Z" fill="url(#paint0_linear_5_738)"/>
<path d="M82.4297 41.5078L48.5625 28.9453C47.5312 28.5703 46.4062 29.0859 46.0312 30.1172L23.1562 91.6875C22.7812 92.7187 23.2969 93.8437 24.3281 94.2187L58.1953 106.781C59.2265 107.156 60.3516 106.641 60.7266 105.609L83.6016 44.0156C83.9766 43.0078 83.4609 41.8828 82.4297 41.5078Z" fill="#2D548D"/>
<path opacity="0.09" d="M62.1329 73.0546C61.2891 73.0546 60.4219 73.0312 59.5313 72.9843C46.3829 72.2578 35.6485 66.3984 30.8204 57.3281C23.1094 42.8437 30.6798 22.664 42.2813 16.3125C48.1407 13.0781 53.2266 13.1718 56.461 13.8281C61.9923 14.9297 66.0704 17.4843 67.9454 21C69.961 24.7734 68.8829 28.3125 67.7344 32.039C66.7032 35.3906 65.6485 38.8359 66.9141 42.5625C68.0391 45.8906 70.9688 46.9218 74.086 48.0234C77.2501 49.1484 80.5313 50.2968 82.2891 53.9296C84.1407 57.7734 83.9063 63.0234 81.7735 66.1875C78.8673 70.4062 71.1798 73.0546 62.1329 73.0546ZM52.8048 13.7343C49.9219 13.7343 46.336 14.3906 42.4219 16.5468C30.9376 22.8515 23.4376 42.8671 31.0782 57.2109C35.8594 66.2109 46.5235 71.9999 59.5782 72.7265C69.6094 73.289 78.4454 70.5937 81.5626 66.0468C83.6485 62.9765 83.8829 57.8203 82.0548 54.0703C80.3438 50.5312 77.1329 49.4062 74.0157 48.3046C70.8516 47.1796 67.8516 46.125 66.6798 42.6796C65.3907 38.8593 66.4688 35.3671 67.5001 31.9687C68.6251 28.289 69.7032 24.7968 67.7344 21.1172C65.9063 17.6718 61.8751 15.164 56.4376 14.0859C55.3829 13.875 54.1641 13.7343 52.8048 13.7343Z" fill="#AAAAD5"/>
<path opacity="0.2" d="M74.2267 38.4609L70.4767 40.9687L37.7345 62.9531L32.5548 66.4453L39.6798 47.2031L44.8829 43.7109L56.6251 35.8125L60.3751 33.3047L74.2267 38.4609Z" fill="#EEEDF3"/>
<path opacity="0.2" d="M81.6798 41.2265L77.9298 43.7343L33.8907 73.3125L28.6876 76.7812L31.2189 70.0078L36.3986 66.539V66.5156L73.0548 41.9297L76.8048 39.3984L81.6798 41.2265Z" fill="#EEEDF3"/>
<path d="M82.4296 41.5078L81.6796 41.2265L76.8046 39.4219L74.2265 38.4609L60.3749 33.3281L48.5624 28.9453C47.5546 28.5703 46.4062 29.0859 46.0312 30.1172L39.6796 47.2265L32.5312 66.4687L31.1952 70.0547L28.6874 76.8281L23.1562 91.7344C23.0859 91.9219 23.0624 92.1094 23.039 92.2969C22.9687 93.1406 23.4843 93.9609 24.328 94.2656L30.6093 96.6094L35.3437 98.3672L47.8593 103.008L52.4296 104.695L58.1952 106.828C59.203 107.203 60.3515 106.687 60.7265 105.68L83.1796 45.2109L83.6015 44.0859C83.9765 43.0078 83.4608 41.8828 82.4296 41.5078ZM79.2187 45.3281L78.7499 46.6172L59.414 98.7187C59.203 99.2578 58.5937 99.5625 58.0312 99.3515L53.789 97.7812L48.6562 95.8828L38.0624 91.9453L33.2109 90.1406L29.3437 88.7109C28.9218 88.5469 28.664 88.1719 28.664 87.75C28.664 87.6094 28.664 87.4687 28.7343 87.3281L33.9374 73.3359L36.4452 66.5625L37.7812 62.9766L44.9296 43.7344L48.5624 33.9609C48.7733 33.4219 49.3827 33.1172 49.9218 33.3281L56.6718 35.8359L70.5233 40.9687L73.1015 41.9297L77.9765 43.7344L78.6093 43.9687C79.1483 44.1797 79.4296 44.789 79.2187 45.3281Z" fill="#EEEDF3"/>
<path d="M40.3124 97.9687C39.3514 97.6172 38.8592 96.539 39.2108 95.5781C39.5624 94.6172 40.6405 94.125 41.6014 94.4766C42.5624 94.8281 43.0545 95.9062 42.703 96.8672C42.328 97.8515 41.2499 98.3203 40.3124 97.9687Z" fill="#C9C7D9"/>
<path opacity="0.1" d="M62.9531 5.17965L15.6797 20.8359C14.5312 21.2109 13.9218 22.4531 14.2968 23.5781L18.8906 37.4062C19.2656 38.5547 20.5078 39.164 21.6328 38.789L26.2968 37.2422L28.5703 36.4922C29.1562 36.8672 30.6093 37.8515 31.1953 38.2031C31.7343 38.5078 32.4375 38.2734 32.6953 37.7109C32.9765 37.0781 33.5625 35.4375 33.7968 34.7812L45.2812 30.9609L68.9062 23.1328C70.0546 22.7578 70.664 21.5156 70.289 20.3906L65.6953 6.56246C65.3203 5.41403 64.1015 4.80465 62.9531 5.17965Z" fill="#3F3F3F"/>
<path d="M62.953 1.52343L12.2342 18.3281C11.0155 18.7266 10.3592 20.0625 10.7577 21.2812L15.6796 36.1172C16.078 37.3359 17.4139 37.9922 18.6327 37.5937L23.6249 35.9297L26.0624 35.1328C26.6717 35.5547 28.2421 36.5859 28.8749 36.9609C29.4374 37.2891 30.2108 37.0312 30.4921 36.4219C30.7733 35.7422 31.4296 33.9609 31.6639 33.2812L43.9921 29.2031L69.3514 20.7891C70.5702 20.3906 71.2264 19.0547 70.828 17.8359L65.9061 2.99999C65.5077 1.78124 64.1952 1.12499 62.953 1.52343Z" fill="url(#paint1_linear_5_738)"/>
<path d="M25.0778 25.2891C25.4294 24.6797 25.5231 23.9297 25.2888 23.2031L24.8903 22.0078C24.445 20.6719 23.0388 19.8516 21.6794 20.25C20.2731 20.6719 19.5231 22.1484 19.9684 23.5312L20.3903 24.8437C20.6247 25.5703 21.1638 26.1094 21.7966 26.3906C20.3434 27.4922 19.4997 29.25 19.6169 31.1016C19.6638 31.8281 20.3903 32.2734 21.07 32.0625L28.9919 29.4375C29.6716 29.2031 29.9763 28.4062 29.6013 27.7969C28.6169 26.2031 26.9059 25.2891 25.0778 25.2891Z" fill="white"/>
<path d="M44.1561 12.7734L34.0545 16.125C33.2342 16.4063 32.7889 17.2969 33.0467 18.1172L34.6873 23.0859C34.9686 23.9063 35.8592 24.3516 36.6795 24.0938L37.6639 23.7656C37.6639 23.7656 39.5389 25.0313 40.1717 25.4063C40.6404 25.6641 41.2733 25.4766 41.4842 24.9609C41.7889 24.2813 42.5389 22.1484 42.5389 22.1484L46.7811 20.7422C47.6014 20.4609 48.0467 19.5703 47.7889 18.75L46.1483 13.7813C45.867 12.9375 44.9764 12.4922 44.1561 12.7734Z" fill="white"/>
<path d="M35.8122 18.4219C35.4841 18.4922 35.1325 18.3281 35.0388 18C34.9216 17.6484 35.1091 17.2734 35.4607 17.1797L43.6638 14.4609C43.9919 14.3437 44.3903 14.5312 44.4841 14.8828C44.6013 15.2344 44.4138 15.6094 44.0622 15.7031L35.8591 18.4219C35.8357 18.4219 35.8357 18.4219 35.8122 18.4219Z" fill="#E2E1E1"/>
<path d="M36.5153 20.5781C36.1872 20.6484 35.8357 20.4844 35.7419 20.1562C35.6247 19.8047 35.8122 19.4297 36.1638 19.3359L44.3669 16.6172C44.695 16.5 45.0935 16.6875 45.1872 17.0391C45.3044 17.3906 45.1169 17.7656 44.7653 17.8594L36.5622 20.5781C36.5622 20.5547 36.5388 20.5781 36.5153 20.5781Z" fill="#E2E1E1"/>
<path d="M37.2421 22.7109C36.914 22.7812 36.5625 22.6172 36.4687 22.2891C36.3515 21.9375 36.539 21.5625 36.8906 21.4687L40.5937 20.25C40.9218 20.1328 41.2968 20.3203 41.414 20.6719C41.5312 21.0234 41.3437 21.3984 40.9921 21.4922L37.289 22.7109C37.2656 22.7109 37.2656 22.7109 37.2421 22.7109Z" fill="#E2E1E1"/>
<path d="M65.2032 15.1172C64.8751 14.1094 64.2188 13.2656 63.4219 12.7031L63.0704 11.625C62.461 9.82031 60.6797 8.76562 58.8516 9.02343L58.7579 8.71875C58.6407 8.36718 58.2657 8.17968 57.9141 8.29687C57.5625 8.41406 57.375 8.78906 57.4922 9.14062L57.586 9.44531C55.9688 10.3125 55.1719 12.2344 55.7579 14.0391L56.1094 15.1172C55.8047 16.0547 55.7813 17.1094 56.1094 18.1172L56.2735 18.5859C56.3438 18.8203 56.6016 18.9609 56.836 18.8672L58.6407 18.2578C58.6641 18.3984 58.7344 18.5391 58.8985 18.5859C59.6485 18.8437 60.4922 18.8437 61.3125 18.5859C62.1329 18.3281 62.7891 17.8125 63.2579 17.1562C63.3516 17.0156 63.3516 16.8516 63.2813 16.7344L65.086 16.125C65.3204 16.0547 65.461 15.7969 65.3672 15.5625L65.2032 15.1172Z" fill="white"/>
<path d="M57.5157 18.0938C57.8672 19.1484 57.2813 20.3203 56.2266 20.6719C55.1719 21.0234 54 20.4375 53.6485 19.3828C53.2969 18.3281 53.8828 17.1563 54.9375 16.8047C56.0157 16.4531 57.1641 17.0156 57.5157 18.0938Z" fill="#E83C3B"/>
<path opacity="0.1" d="M113.953 45L100.992 43.4531C100.43 43.3828 99.9375 43.7813 99.8672 44.3438L98.3203 57.3047C98.25 57.8672 98.6484 58.3594 99.2109 58.4297L112.172 59.9766C112.734 60.0469 113.227 59.6485 113.297 59.086L114.844 46.125C114.914 45.586 114.516 45.0703 113.953 45Z" fill="#3F3F3F"/>
<path d="M115.476 58.1719L100.336 56.3672C100.078 56.3438 99.8905 56.1094 99.9374 55.8516L101.742 40.7109C101.766 40.4531 102 40.2656 102.258 40.3125L117.398 42.1172C117.656 42.1406 117.844 42.375 117.797 42.6328L115.992 57.7734C115.969 58.0078 115.734 58.1953 115.476 58.1719Z" fill="#F8AA09"/>
<path d="M101.555 54.7031L103.055 42.1641C103.078 42 103.219 41.9062 103.359 41.9062L115.898 43.4062C116.062 43.4297 116.156 43.5703 116.156 43.7109L114.656 56.25C114.633 56.4141 114.492 56.5078 114.351 56.5078L101.812 55.0078C101.648 55.0078 101.555 54.8672 101.555 54.7031Z" fill="#FBBA38"/>
<path d="M109.172 50.2969L107.719 51.4453C107.461 51.6562 107.062 51.6094 106.851 51.3516C106.64 51.0937 106.265 51.0469 105.984 51.2578L103.851 52.9453C103.429 53.2734 103.617 53.9766 104.156 54.0469L104.414 54.0703L109.453 54.6797L112.289 55.0078C112.828 55.0781 113.179 54.4453 112.851 54.0234L110.039 50.3906C109.828 50.1328 109.429 50.0859 109.172 50.2969Z" fill="#EE9F05"/>
<path d="M106.57 47.8594C106.5 48.4453 105.961 48.8672 105.375 48.7969C104.789 48.7266 104.367 48.1875 104.437 47.6016C104.508 47.0156 105.047 46.5937 105.633 46.6641C106.218 46.7344 106.64 47.2734 106.57 47.8594Z" fill="#EE9F05"/>
<path opacity="0.1" d="M32.0156 81.7734C31.5235 80.2031 29.8594 79.3359 28.2891 79.8281L9.16407 85.875C7.59376 86.3672 6.72657 88.0312 7.21876 89.6015L11.1563 102.047C11.6484 103.617 13.3125 104.484 14.8828 103.992L16.7578 103.406C16.7578 103.406 20.25 105.82 21.4688 106.547C22.336 107.062 23.5313 106.687 23.9531 105.75C24.5391 104.461 25.9922 100.477 25.9922 100.477L34.0078 97.9453C35.5781 97.4531 36.4453 95.789 35.9531 94.2187L32.0156 81.7734Z" fill="#3F3F3F"/>
<path d="M24.9844 76.9922L4.47659 83.4844C2.78909 84.0234 1.87503 85.8047 2.39065 87.4922L6.6094 100.852C7.14846 102.539 8.92971 103.453 10.6172 102.938L12.6094 102.305C12.6094 102.305 16.3594 104.906 17.6485 105.68C18.586 106.242 19.875 105.82 20.3203 104.836C20.9532 103.453 22.5 99.1641 22.5 99.1641L31.1016 96.4453C32.7891 95.9063 33.7032 94.125 33.1875 92.4375L28.9688 79.0781C28.4766 77.3906 26.6719 76.4531 24.9844 76.9922Z" fill="url(#paint2_linear_5_738)"/>
<path d="M25.0548 83.9063L8.41416 89.1797C7.8751 89.3438 7.28916 89.0625 7.1251 88.5C6.96104 87.961 7.26573 87.375 7.80479 87.211L24.4454 81.9375C24.9845 81.7735 25.5704 82.0547 25.7345 82.6172C25.8985 83.1563 25.5939 83.7422 25.0548 83.9063Z" fill="#EDB7D5"/>
<path d="M26.5311 88.6172L9.89048 93.8906C9.35142 94.0547 8.76548 93.7735 8.60142 93.211C8.43736 92.6719 8.74204 92.086 9.28111 91.9219L25.9217 86.6485C26.4608 86.4844 27.0467 86.7657 27.2108 87.3282C27.3749 87.8438 27.0702 88.4297 26.5311 88.6172Z" fill="#EDB7D5"/>
<path d="M18.8906 96.1875L11.3906 98.5547C10.8515 98.7187 10.2656 98.414 10.1015 97.875C9.93748 97.3359 10.2422 96.75 10.7812 96.5859L18.2812 94.2187C18.8203 94.0547 19.4062 94.3594 19.5703 94.8984C19.7344 95.4375 19.4297 96.0234 18.8906 96.1875Z" fill="#EDB7D5"/>
<path opacity="0.1" d="M66.9142 53.7188C66.6329 52.5235 65.0392 52.2657 64.3829 53.3203L61.7579 57.5625L60.2814 51.3985C59.9767 50.1563 58.7345 49.3828 57.4923 49.6875L40.547 53.7188C39.3048 54.0235 38.5314 55.2657 38.8361 56.5078L42.8673 73.4532C43.172 74.6953 44.4142 75.4688 45.6564 75.1641L62.6017 71.1328C63.8439 70.8282 64.6173 69.586 64.3126 68.3438L62.8361 62.1797L67.0783 64.8047C68.1329 65.461 69.4454 64.5 69.1408 63.3047L66.9142 53.7188Z" fill="#3F3F3F"/>
<path d="M66.3987 48.7031L63.5862 53.2735L62.0159 46.6641C61.6878 45.3281 60.3518 44.5078 59.0159 44.8125L40.8284 49.1485C39.4924 49.4766 38.6721 50.8125 38.9768 52.1485L43.3128 70.336C43.6409 71.6719 44.9768 72.4922 46.3128 72.1875L64.5003 67.8516C65.8362 67.5235 66.6565 66.1875 66.3518 64.8516L64.7815 58.2422L69.3518 61.0547C70.4768 61.7578 71.8831 60.7266 71.5784 59.4375L69.1175 49.1485C68.8128 47.8594 67.1018 47.5781 66.3987 48.7031Z" fill="#E83B5B"/>
<path d="M49.4298 53.6016L56.0861 57.6798L51.9845 64.336" fill="white"/>
<path d="M78.9434 79.969L51.2856 84.3746L53.7742 99.9972L81.4319 95.5916L78.9434 79.969Z" fill="#E83C3B"/>
<path d="M66.3518 90.0001L78.9377 79.9922L51.2815 84.3985L66.3518 90.0001Z" fill="#EE7375"/>
<path d="M84.5625 106.805H100.383C100.852 106.805 101.25 106.406 101.25 105.937C101.25 105.469 100.852 105.07 100.383 105.07H84.5625C84.0937 105.07 83.6953 105.469 83.6953 105.937C83.6953 106.43 84.0703 106.805 84.5625 106.805Z" fill="#E2E2E1"/>
<path d="M89.7888 103.125L89.0388 98.5546L91.1013 97.9218L91.4294 102.797L89.7888 103.125Z" fill="#D7DDE9"/>
<path d="M91.4999 102.305C91.6405 102.328 91.7577 102.375 91.8749 102.469C92.6014 103.078 94.828 104.156 95.953 104.32C97.1717 104.508 97.2421 105.094 95.5077 105.094C93.7967 105.094 92.5311 104.93 91.7811 104.953C91.0077 104.976 91.2186 105.094 89.3436 105.094C87.8905 105.094 88.3593 103.242 88.8749 102.398C89.0389 102.141 89.2499 102 89.5546 102.023L91.4999 102.305Z" fill="#ED9558"/>
<path d="M83.1561 98.8593L86.0155 95.2265L87.8671 96.3281L84.5155 99.8437L83.1561 98.8593Z" fill="#D7DDE9"/>
<path d="M84.9373 99.5625C85.0076 99.6797 85.0779 99.7969 85.0779 99.9375C85.1248 100.875 85.8514 103.312 86.7186 104.086C87.5858 104.883 87.0233 105.07 85.617 104.414C84.0701 103.687 83.7186 102.117 83.1795 101.578C82.6404 101.039 82.6873 101.25 81.4217 99.8672C80.4373 98.8125 82.1014 97.8984 83.0858 97.6875C83.3904 97.6172 83.6248 97.6875 83.8123 97.9453L84.9373 99.5625Z" fill="#ED9558"/>
<path d="M81.8671 21.6094C81.8671 21.6094 81.3046 25.3594 82.3828 27.0938C83.4609 28.8282 83.6249 29.086 83.6249 29.086" fill="#ED8C61"/>
<path d="M84.6329 30.75C84.3282 30.9375 83.9767 31.0313 83.6485 31.0313C82.9923 31.0313 82.336 30.7032 81.9845 30.0703C81.961 30.0469 81.7735 29.7188 80.7657 28.125C80.0626 27 79.8282 25.4766 79.8048 24.1407C79.7579 22.8282 79.8985 21.7032 79.9688 21.3282C80.1329 20.2735 81.1173 19.5235 82.1954 19.6875C83.2501 19.8516 84.0001 20.836 83.836 21.9141C83.7423 22.4766 83.7188 23.1328 83.7188 23.7422C83.7188 24.375 83.7657 24.9844 83.8595 25.4297C83.9063 25.6875 83.9767 25.9219 84.0704 26.0625C85.172 27.8203 85.336 28.1016 85.336 28.1016C85.8751 29.0157 85.5704 30.211 84.6329 30.75Z" fill="#F6AD86"/>
<path d="M77.4374 52.2188C77.8359 46.6172 75.9609 32.7188 74.9999 27.1875C74.8593 26.3438 75.4921 25.5703 76.3593 25.5703H87.8671C88.4765 25.5703 89.039 25.9922 89.2031 26.5782C90.5156 31.5938 91.3593 52.1953 91.3593 52.1953H77.4374V52.2188Z" fill="#E8E8E8"/>
<path d="M96.4452 40.5703C96.2577 39.5156 94.9687 36.8203 93.539 34.0078C92.0156 31.0313 90.3046 27.8906 89.5077 26.4844C89.0624 25.6875 88.0546 25.4063 87.2577 25.8281C86.4609 26.2735 86.1796 27.2813 86.6015 28.0781C87.8202 30.2813 89.0624 32.6016 90.164 34.6875C91.4062 37.0781 92.6015 38.5313 93.0937 39.7031C92.2031 40.4766 89.9765 40.5469 88.2187 40.4297C87.7265 40.3828 85.8515 40.2422 84.6093 41.3906C84.1171 41.836 83.5546 42.6563 83.6015 43.9453C83.6484 44.836 83.7656 45.1875 84.5624 45.586C84.8906 45.75 85.3124 45.7735 85.664 45.75C86.5781 45.6328 86.6484 45.1406 86.6484 44.086C86.6484 43.336 87.0468 42.586 87.0468 42.586C87.0468 42.586 89.7187 43.2422 91.9452 43.5235C94.1718 43.8047 95.0859 43.3594 95.9062 42.4453C96.3749 41.9063 96.5624 41.2266 96.4452 40.5703Z" fill="#F6AD86"/>
<path d="M78.0469 61.2657C78.0469 61.2657 76.3594 58.1719 77.4376 52.2188H91.336C91.336 52.2188 91.5235 56.7422 91.2188 61.2657H78.0469Z" fill="#3A63A9"/>
<path d="M93.5153 34.0079L91.8981 34.336L90.1638 34.6876C89.0856 32.6016 87.82 30.2579 86.6013 28.0782C86.1559 27.2813 86.4606 26.2735 87.2575 25.8282C88.0544 25.3829 89.0622 25.6876 89.5075 26.4844C90.2809 27.8907 91.9919 31.0313 93.5153 34.0079Z" fill="#ED8C61"/>
<path d="M77.8827 26.8829C77.6718 25.9922 76.7577 25.4532 75.8905 25.6876C71.9061 26.6719 69.1405 27.5626 67.2186 28.3829C62.789 30.2579 62.8358 31.6407 62.8358 32.3438C62.8593 33.1407 63.0233 34.711 72.5624 38.1797C72.5624 38.461 72.2577 39.5391 72.0702 39.8907C71.6249 40.6876 72.0936 41.461 72.5624 42.2344C72.7265 42.4922 73.1015 42.8204 73.5468 42.8204C74.1327 42.8204 74.8593 42.0704 74.953 41.461C75.3046 39.2344 75.2577 37.9219 75.1405 37.6641C75.1405 37.6407 75.1171 37.6172 75.1171 37.5938C75.0702 37.5235 75.0468 37.4532 74.9999 37.3829C74.9765 37.336 74.9296 37.3126 74.9061 37.2657C74.8593 37.2188 74.8358 37.1719 74.789 37.1485C74.7186 37.0782 74.6483 37.0313 74.578 36.9844C74.5546 36.9844 74.5546 36.961 74.5311 36.961C74.414 36.8907 74.2968 36.8204 74.1796 36.7735C70.9452 35.4376 67.9218 33.2813 66.5858 32.3438C67.0546 32.086 67.7108 31.7579 68.5311 31.4532C70.5702 30.6329 73.5702 29.6719 76.6405 28.9219C77.5546 28.6641 78.0936 27.7735 77.8827 26.8829Z" fill="#F6AD86"/>
<path d="M93.7733 33.2813L91.5467 33.7031L89.8124 34.0313L88.3358 34.3125C86.4373 30.586 85.992 29.7422 85.9217 28.4766C85.8514 27.0469 86.2264 26.3203 87.1639 25.8047C88.1014 25.2891 89.2733 25.6172 89.7889 26.5547C89.8358 26.625 91.8514 29.5078 93.7733 33.2813Z" fill="#E8E8E8"/>
<path d="M99.8203 79.6407C99.6094 81 98.8828 82.4766 97.8516 84.2813C96.1172 87.2813 93.4688 90.6329 91.0781 93.4219C89.4141 95.3672 87.8906 97.0547 86.9297 98.2032C86.5078 98.6954 86.1797 99.0938 85.9922 99.3516L84.0234 96.8204C84.75 95.7891 85.4297 94.4063 86.2734 93.1172C86.2969 93.0938 86.3203 93.0469 86.3438 93.0235C87.9375 90.6094 89.6484 87.8907 91.0078 85.4063C91.0547 85.3125 91.1016 85.2422 91.1484 85.1485C92.6016 82.5235 93.6797 80.2032 93.8906 78.8438C94.2656 76.4297 90.6328 68.8829 87.0469 62.2266C86.6484 61.4532 86.2266 60.7032 85.8281 59.9766C85.6875 59.7188 85.6172 59.461 85.5938 59.1797C85.5 57.961 86.3906 56.5547 87.4922 55.9454C88.8281 55.1954 90.5625 54.8204 91.3125 56.1563C92.8359 58.9219 100.734 73.711 99.8203 79.6407Z" fill="#3A63A9"/>
<path d="M91.0779 93.4219C89.4138 95.3672 87.8904 97.0547 86.9294 98.2031C86.7654 96.8438 86.6013 95.3672 86.4373 93.8672C86.4138 93.5859 86.3669 93.2812 86.3435 93C87.9373 90.5859 89.6482 87.8672 91.0076 85.3828C91.1013 87.8437 91.1013 90.7266 91.0779 93.4219Z" fill="#2D548D"/>
<path d="M90.7265 80.3906C90.0468 74.836 85.3828 59.9063 84.6562 58.2656C84.0468 56.8594 80.6718 56.5547 79.2656 57.1875C77.8593 57.7969 77.2265 59.4375 77.8359 60.8438C79.7109 65.1094 85.0312 76.5235 85.5703 80.5547C85.875 82.9688 86.2968 87.8203 87.0468 91.9688C87.5859 94.8516 88.125 97.6641 88.5234 99.7032C88.875 101.484 88.875 101.156 88.8984 101.32L92.2265 100.805C92.2265 100.805 91.5234 86.9531 90.7265 80.3906Z" fill="#3A63A9"/>
<path d="M76.6639 28.875C73.5936 29.625 70.5936 30.586 68.5546 31.4063L67.1952 28.3594C69.1171 27.5625 71.8827 26.6485 75.8671 25.6641C76.7577 25.4532 77.6483 25.9922 77.8593 26.8594C78.0936 27.7735 77.5546 28.6641 76.6639 28.875Z" fill="#ED8C61"/>
<path d="M75.9141 25.6172C76.9687 25.4532 77.7422 25.9688 78.0234 27.0001C78.3047 28.0313 77.6016 28.8282 76.6641 29.3672C75.5391 30.0235 75.1406 30.1641 70.3828 31.8047L67.7344 28.1485C73.8281 25.7813 74.1328 25.8751 75.9141 25.6172Z" fill="#E8E8E8"/>
<path d="M83.836 25.4297C83.7423 25.4297 83.6485 25.4297 83.5782 25.4297C82.1485 25.4297 80.836 24.961 79.8048 24.1406C79.7579 22.8281 79.8985 21.7031 79.9688 21.3281C80.1329 20.2735 81.1173 19.5235 82.1954 19.6875C83.2501 19.8516 84.0001 20.836 83.836 21.9141C83.7423 22.4766 83.7189 23.1328 83.7189 23.7422C83.672 24.3516 83.7189 24.961 83.836 25.4297Z" fill="#ED8C61"/>
<path d="M89.3436 18.4922C88.5702 22.0782 86.578 24.7032 83.1327 24.7032C79.7108 24.7032 77.5546 22.1016 76.9218 18.4922C76.3593 15.1172 79.7108 11.8125 83.1327 11.8125C86.6014 11.7891 90.0702 15.1407 89.3436 18.4922Z" fill="#F6AD86"/>
<path d="M89.8125 101.344L89.789 101.25C88.8515 95.4375 87.4218 86.6719 86.7187 81.1407C86.2031 77.1094 81.2109 65.1563 79.3359 60.8907C79.3125 60.8672 79.3125 60.8203 79.3125 60.7969C79.3125 60.7735 79.3125 60.7735 79.289 60.75C78.9843 59.9297 78.0703 56.8828 78.9375 52.0782L79.2187 52.125C78.3515 56.8594 79.2656 59.836 79.5468 60.6563C79.5468 60.6797 79.5703 60.7032 79.5703 60.7266C79.5703 60.75 79.5703 60.7735 79.5937 60.7969C81.4687 65.0625 86.4609 77.0625 86.9765 81.1172C87.7031 86.625 89.1093 95.4141 90.0468 101.227L90.0703 101.32L89.8125 101.344Z" fill="#658BC1"/>
<path d="M85.3594 25.5938C85.3594 26.4375 85.0312 27.8438 82.8281 27.8438C81.2344 27.8438 79.2187 27.1641 78.4687 25.875L78.3047 25.5938H85.3594Z" fill="#C8D6DB"/>
<path d="M78.9607 25.5938C79.5466 26.625 81.3044 27.2812 82.8279 27.2812C84.3513 27.2812 84.7966 26.5312 84.7966 25.5938H78.9607Z" fill="#F6AD86"/>
<path d="M87.3046 42.9141C87.3046 42.8906 87.3983 41.9531 86.4139 40.5938L87.328 40.0547C88.4764 41.7656 88.3592 42.9844 88.3592 43.0547L87.3046 42.9141Z" fill="#82AACE"/>
<path d="M86.6013 40.0781C87.1169 39.8438 87.7966 39.9609 88.1482 40.3359C88.4763 40.7109 88.3357 41.2266 87.7966 41.4609C87.281 41.6953 86.6013 41.5781 86.2497 41.2031C85.9216 40.8047 86.0622 40.3125 86.6013 40.0781Z" fill="#4E7DB0"/>
<path d="M89.2032 13.8984C87.3282 10.875 82.711 10.6406 81.8204 10.6875C81.3516 10.7109 80.3203 10.9922 79.875 11.6953C79.8516 11.2031 79.875 10.7578 79.875 10.7578C79.4766 11.25 79.4063 11.6719 79.4766 12C79.1954 11.625 79.0079 11.2266 79.0079 11.2266C78.9375 11.7422 79.0782 12.0469 79.2891 12.2109C78.0235 12.5156 76.4063 14.2969 76.9688 17.9531C77.2032 19.5469 80.8125 18.3281 81.8204 16.7344C82.5 17.8359 83.8594 18.0703 83.8594 18.0703C83.3907 17.6016 82.9688 16.8984 82.6407 16.1953C84.5625 17.3672 87.1172 18.6328 87.4219 19.4063C87.4219 19.4063 87.9844 18.1641 87.5625 17.3672C87.5625 17.3672 89.086 17.7422 89.2735 19.2656C89.25 19.2188 91.1953 17.1328 89.2032 13.8984Z" fill="#424344"/>
<path d="M84.7149 52.0706L84.4373 52.1154L85.955 61.5092L86.2327 61.4644L84.7149 52.0706Z" fill="#658BC1"/>
<path d="M85.8044 59.7188L85.7576 59.4375C85.7576 59.4375 86.3435 59.3437 86.6482 58.8984C86.8357 58.6406 86.8826 58.3125 86.8357 57.9375L85.8748 51.9844L86.156 51.9375L87.1169 57.8906C87.1873 58.3594 87.1169 58.7578 86.8826 59.0625C86.5076 59.625 85.8279 59.7188 85.8044 59.7188Z" fill="#658BC1"/>
<path d="M76.7343 18.1172C76.453 18.7266 76.4999 19.3828 76.7577 19.9453C77.0624 20.6016 78.0233 20.5547 78.3046 19.8984L79.1014 18.1172C79.4061 17.4609 78.7967 16.7344 78.0936 16.9219C77.5077 17.1094 76.9921 17.5313 76.7343 18.1172Z" fill="#F6AD86"/>
<defs>
<linearGradient id="paint0_linear_5_738" x1="112.314" y1="108.129" x2="-6.59315" y2="-1.10459" gradientUnits="userSpaceOnUse">
<stop stop-color="#6FC7DA"/>
<stop offset="0.3693" stop-color="#0D71B9"/>
<stop offset="0.7613" stop-color="#9E1460"/>
<stop offset="1" stop-color="#E7267A"/>
</linearGradient>
<linearGradient id="paint1_linear_5_738" x1="62.2983" y1="42.3722" x2="10.7441" y2="-12.3101" gradientUnits="userSpaceOnUse">
<stop stop-color="#6FC7DA"/>
<stop offset="1" stop-color="#9E1460"/>
</linearGradient>
<linearGradient id="paint2_linear_5_738" x1="37.7701" y1="93.0602" x2="8.43933" y2="89.8522" gradientUnits="userSpaceOnUse">
<stop stop-color="#6FC7DA"/>
<stop offset="0.6927" stop-color="#9E1460"/>
<stop offset="1" stop-color="#E7267A"/>
</linearGradient>
</defs>
</svg>
